<svg width="40" height="37" viewBox="0 0 40 37" fill="none" xmlns="http://www.w3.org/2000/svg">
    <path d="M28.6958 29.2392H10.2371C9.95713 29.2392 9.686 29.1409 9.47103 28.9615C9.25605 28.7821 9.11086 28.5329 9.06077 28.2574L5.06996 6.30794C5.01987 6.03245 4.87468 5.78327 4.6597 5.60386C4.44472 5.42445 4.1736 5.32617 3.89359 5.32617H1.1958" stroke="#5B5B5B" stroke-width="2" stroke-linecap="round" stroke-linejoin="round"/>
    <path d="M10.7611 35.2175C12.412 35.2175 13.7502 33.8792 13.7502 32.2284C13.7502 30.5775 12.412 29.2393 10.7611 29.2393C9.11025 29.2393 7.77197 30.5775 7.77197 32.2284C7.77197 33.8792 9.11025 35.2175 10.7611 35.2175Z" stroke="#5B5B5B" stroke-width="2" stroke-linecap="round" stroke-linejoin="round"/>
    <path d="M28.6957 35.2173C30.3465 35.2173 31.6848 33.879 31.6848 32.2281C31.6848 30.5773 30.3465 29.239 28.6957 29.239C27.0448 29.239 25.7065 30.5773 25.7065 32.2281C25.7065 33.879 27.0448 35.2173 28.6957 35.2173Z" stroke="#5B5B5B" stroke-width="2" stroke-linecap="round" stroke-linejoin="round"/>
    <path d="M5.97803 11.3042H32.0454C32.2205 11.3042 32.3935 11.3427 32.5521 11.4169C32.7108 11.4911 32.8511 11.5993 32.9633 11.7337C33.0756 11.8682 33.1569 12.0257 33.2015 12.195C33.2462 12.3643 33.2531 12.5414 33.2218 12.7137L31.2652 23.4746C31.2151 23.7501 31.07 23.9993 30.855 24.1787C30.64 24.3581 30.3689 24.4564 30.0889 24.4564H8.36933" stroke="#5B5B5B" stroke-width="2" stroke-linecap="round" stroke-linejoin="round"/>
</svg>
