<svg width="26" height="21" viewBox="0 0 26 21" fill="none" xmlns="http://www.w3.org/2000/svg">
    <path d="M17.8476 1.73338H0.866692C0.387641 1.73338 0 1.34574 0 0.866692C0 0.387641 0.387641 0 0.866692 0H17.8476C18.3266 0 18.7143 0.387641 18.7143 0.866692C18.7143 1.34574 18.3266 1.73338 17.8476 1.73338Z" fill="#E35910"/>
    <path d="M8.975 6.50017H0.866691C0.387641 6.50017 0 6.11253 0 5.63348C0 5.15443 0.387641 4.76678 0.866691 4.76678H8.975C9.45405 4.76678 9.84169 5.15443 9.84169 5.63348C9.84169 6.11253 9.45405 6.50017 8.975 6.50017Z" fill="#E35910"/>
    <path d="M8.975 11.267H0.866691C0.387641 11.267 0 10.8793 0 10.4003C0 9.92121 0.387641 9.53357 0.866691 9.53357H8.975C9.45405 9.53357 9.84169 9.92121 9.84169 10.4003C9.84169 10.8793 9.45405 11.267 8.975 11.267Z" fill="#E35910"/>
    <path d="M8.975 16.0337H0.866691C0.387641 16.0337 0 15.6461 0 15.167C0 14.688 0.387641 14.3003 0.866691 14.3003H8.975C9.45405 14.3003 9.84169 14.688 9.84169 15.167C9.84169 15.6461 9.45405 16.0337 8.975 16.0337Z" fill="#E35910"/>
    <path d="M18.534 20.8005H0.866692C0.387641 20.8005 0 20.4128 0 19.9338C0 19.4547 0.387641 19.0671 0.866692 19.0671H18.534C19.013 19.0671 19.4007 19.4547 19.4007 19.9338C19.4007 20.4128 19.013 20.8005 18.534 20.8005Z" fill="#E35910"/>
    <path d="M25.1336 17.7383C24.9119 17.7383 24.6901 17.6537 24.5209 17.4844L21.2344 14.1979C20.8958 13.8594 20.8958 13.3109 21.2344 12.9724C21.5729 12.6338 22.1214 12.6338 22.4599 12.9724L25.7464 16.2589C26.085 16.5974 26.085 17.1459 25.7464 17.4844C25.5771 17.6537 25.3554 17.7383 25.1336 17.7383Z" fill="#E35910"/>
    <path d="M17.8473 16.1049C16.1765 16.1057 14.5066 15.4693 13.2353 14.198C12.003 12.9657 11.3242 11.3279 11.3242 9.58523C11.3242 7.84254 12.003 6.2048 13.2353 4.97332C14.4668 3.74099 16.1046 3.06219 17.8473 3.06219C19.59 3.06219 21.2277 3.74099 22.46 4.97332C23.6923 6.2048 24.3711 7.84254 24.3711 9.58523C24.3711 11.3279 23.6923 12.9657 22.46 14.198C21.1879 15.4693 19.5172 16.1049 17.8473 16.1049ZM17.8473 4.79558C16.5684 4.79558 15.3657 5.2941 14.4609 6.19887C13.5561 7.10365 13.0576 8.30636 13.0576 9.58523C13.0576 10.865 13.5561 12.0677 14.4609 12.9724C16.328 14.8396 19.3657 14.8396 21.2345 12.9724C22.1392 12.0677 22.6378 10.865 22.6378 9.58523C22.6378 8.30636 22.1392 7.10365 21.2345 6.19887C20.3297 5.2941 19.127 4.79558 17.8473 4.79558Z" fill="#E35910"/>
</svg>
