<svg width="30" height="26" viewBox="0 0 30 26" fill="none" xmlns="http://www.w3.org/2000/svg">
    <path d="M8.76897 25.9004C8.30614 25.8999 7.8559 25.8092 7.43078 25.6298C7.01869 25.4562 6.6477 25.2069 6.32884 24.89C6.00853 24.5716 5.75686 24.2003 5.58101 23.7864C5.39792 23.3562 5.30517 22.8985 5.30469 22.4248C5.30469 21.8866 5.43221 21.3473 5.67327 20.8664C5.91433 20.3851 6.2699 19.9607 6.70128 19.6385L16.9478 11.9914C17.8164 11.3426 18.7782 10.8406 19.8068 10.4991C20.8358 10.1572 21.9063 9.98401 22.99 9.98401H22.9909C23.6146 9.98401 24.2334 10.066 24.8301 10.2271C25.4088 10.3834 25.9668 10.6143 26.4886 10.9134C27.5166 11.5033 28.3872 12.3497 29.005 13.3611C29.1442 13.5883 29.0717 13.8854 28.8446 14.0243C28.7688 14.0706 28.6818 14.0947 28.5933 14.0947C28.4233 14.0947 28.2687 14.0084 28.1803 13.8637C27.063 12.0387 25.1228 10.9486 22.9909 10.9486C21.0354 10.9486 19.0942 11.593 17.5261 12.7641L7.27958 20.4111C6.64818 20.8824 6.27086 21.6353 6.27086 22.4248C6.27134 23.0991 6.53416 23.7319 7.01098 24.2065C7.48442 24.6768 8.10858 24.9358 8.76897 24.9358C8.87233 24.9358 23.7387 23.0953 23.7387 23.0953C26.547 22.747 28.7253 20.5371 29.0359 17.7204C29.0629 17.4753 29.2692 17.2911 29.5156 17.2911C29.5335 17.2911 29.5513 17.2921 29.5692 17.294C29.6973 17.308 29.8127 17.3713 29.8934 17.4716C29.9741 17.5724 30.0103 17.6982 29.9963 17.8261C29.9093 18.6166 29.691 19.3811 29.3475 20.0978C29.0118 20.7986 28.5654 21.4357 28.0209 21.9919C27.4736 22.5504 26.8431 23.011 26.1469 23.3602C25.4296 23.72 24.6595 23.953 23.858 24.0528C23.8581 24.0526 8.91342 25.9004 8.76897 25.9004Z" fill="#DF570E"/>
    <path d="M11.5854 23.3682C10.4533 23.3682 9.53223 22.4487 9.53223 21.3184C9.53223 20.1881 10.4533 19.2686 11.5854 19.2686C12.7175 19.2686 13.6386 20.1881 13.6386 21.3184C13.6386 22.4487 12.7175 23.3682 11.5854 23.3682ZM11.5854 20.2332C10.986 20.2332 10.4984 20.72 10.4984 21.3184C10.4984 21.9168 10.986 22.4036 11.5854 22.4036C12.1848 22.4036 12.6724 21.9168 12.6724 21.3184C12.6724 20.72 12.1848 20.2332 11.5854 20.2332Z" fill="#DF570E"/>
    <path d="M20.7636 22.1142C18.2995 22.1142 16.2949 20.1129 16.2949 17.6528C16.2949 15.1928 18.2995 13.1914 20.7636 13.1914C23.2276 13.1914 25.2322 15.1928 25.2322 17.6528C25.2322 20.1129 23.2276 22.1142 20.7636 22.1142ZM20.7636 14.156C18.8323 14.156 17.2611 15.7247 17.2611 17.6528C17.2611 19.581 18.8323 21.1496 20.7636 21.1496C22.6949 21.1496 24.2661 19.581 24.2661 17.6528C24.2661 15.7247 22.6949 14.156 20.7636 14.156Z" fill="#DF570E"/>
    <path d="M20.7641 19.7027C19.632 19.7027 18.7109 18.7832 18.7109 17.6529C18.7109 16.5226 19.632 15.603 20.7641 15.603C21.8962 15.603 22.8173 16.5226 22.8173 17.6529C22.8173 18.7832 21.8962 19.7027 20.7641 19.7027ZM20.7641 16.5677C20.1648 16.5677 19.6772 17.0545 19.6772 17.6529C19.6772 18.2512 20.1648 18.7381 20.7641 18.7381C21.3634 18.7381 21.8511 18.2512 21.8511 17.6529C21.8511 17.0545 21.3635 16.5677 20.7641 16.5677Z" fill="#DF570E"/>
    <path d="M29.4003 16.0988C29.6667 16.0988 29.8826 15.8828 29.8826 15.6165C29.8826 15.3501 29.6667 15.1342 29.4003 15.1342C29.1339 15.1342 28.918 15.3501 28.918 15.6165C28.918 15.8828 29.1339 16.0988 29.4003 16.0988Z" fill="#DF570E"/>
    <path d="M3.70418 6.41522C1.66353 9.95926 2.87656 14.4863 6.41584 16.5352C6.92691 16.8297 7.47094 17.0627 8.03665 17.2296C8.25469 17.2941 8.4837 17.1696 8.54816 16.9515C8.61263 16.7335 8.48813 16.5045 8.2701 16.44C4.88835 15.4503 2.88493 11.9738 3.72411 8.5516C4.56329 5.12937 7.94768 2.97412 11.4037 3.66107C14.8597 4.34803 17.1626 7.63375 16.6292 11.1168C16.6013 11.2644 16.6561 11.4155 16.7721 11.5109C16.8881 11.6064 17.0469 11.631 17.1864 11.5752C17.3259 11.5195 17.4239 11.3921 17.4422 11.243C17.982 7.72053 15.9375 4.31279 12.5755 3.13131C9.21344 1.94982 5.48659 3.3294 3.70418 6.41522Z" fill="#DF570E"/>
    <path d="M10.833 5.59485H8.72688C8.61517 5.59485 8.50803 5.63923 8.42903 5.71822C8.35004 5.79722 8.30566 5.90436 8.30566 6.01607V9.80707H7.46321C7.3515 9.80707 7.24436 9.85145 7.16537 9.93045C7.08637 10.0094 7.04199 10.1166 7.04199 10.2283C7.04199 10.34 7.08637 10.4471 7.16537 10.5261C7.24436 10.6051 7.3515 10.6495 7.46321 10.6495H8.30566V11.9132H7.46321C7.3515 11.9132 7.24436 11.9576 7.16537 12.0366C7.08637 12.1156 7.04199 12.2227 7.04199 12.3344C7.04199 12.4461 7.08637 12.5533 7.16537 12.6323C7.24436 12.7112 7.3515 12.7556 7.46321 12.7556H8.30566V14.4405C8.30566 14.5522 8.35004 14.6594 8.42903 14.7384C8.50803 14.8174 8.61517 14.8617 8.72688 14.8617C8.8386 14.8617 8.94574 14.8174 9.02473 14.7384C9.10373 14.6594 9.1481 14.5522 9.1481 14.4405V12.7556H10.4118C10.5235 12.7556 10.6306 12.7112 10.7096 12.6323C10.7886 12.5533 10.833 12.4461 10.833 12.3344C10.833 12.2227 10.7886 12.1156 10.7096 12.0366C10.6306 11.9576 10.5235 11.9132 10.4118 11.9132H9.1481V10.6495H10.833C11.5033 10.6495 12.1461 10.3832 12.6201 9.90928C13.0941 9.43531 13.3603 8.79247 13.3603 8.12218C13.3603 7.45189 13.0941 6.80905 12.6201 6.33509C12.1461 5.86112 11.5033 5.59485 10.833 5.59485ZM10.833 9.80707H9.1481V6.43729H10.833C11.2799 6.43729 11.7084 6.61481 12.0244 6.93079C12.3404 7.24676 12.5179 7.67532 12.5179 8.12218C12.5179 8.56904 12.3404 8.9976 12.0244 9.31358C11.7084 9.62956 11.2799 9.80707 10.833 9.80707Z" fill="#DF570E"/>
</svg>
