<svg width="30" height="30" viewBox="0 0 30 30" fill="none" xmlns="http://www.w3.org/2000/svg">
    <path d="M28.5484 13.5484H26.7303C26.4428 13.5484 26.165 13.6108 25.9121 13.7289L25.0027 9.63645C24.7622 8.55404 23.8404 7.78846 22.7419 7.7441V5.80646H21.7742V2.82C22.3373 2.62025 22.7419 2.08242 22.7419 1.4516C22.7419 0.651152 22.0907 0 21.2903 0C20.4899 0 19.8387 0.651152 19.8387 1.4516C19.8387 2.08236 20.2433 2.6202 20.8065 2.82V5.80646H19.8387V7.74193H11.23C10.0874 7.74193 9.11619 8.52094 8.86822 9.63645L7.99816 13.5517C3.56736 13.6727 0 17.3146 0 21.7742C0 26.3099 3.69012 30 8.2258 30C10.7333 30 12.982 28.8718 14.4921 27.0968H23.8758C23.9822 27.0968 24.0881 27.0942 24.1936 27.0895V28.0645C24.1936 29.1318 25.0618 30 26.1291 30H27.0968C28.164 30 29.0323 29.1318 29.0323 28.0645V24.8779V24.6774V22.092C29.0323 20.3546 28.4113 18.7129 27.2752 17.4193H28.5483C29.3487 17.4193 29.9999 16.7681 29.9999 15.9677V15C30 14.1996 29.3488 13.5484 28.5484 13.5484ZM21.2903 0.967734C21.5571 0.967734 21.7742 1.18482 21.7742 1.4516C21.7742 1.71838 21.5571 1.93547 21.2903 1.93547C21.0236 1.93547 20.8065 1.71838 20.8065 1.4516C20.8065 1.18482 21.0236 0.967734 21.2903 0.967734ZM15.2011 17.4193H24.4969C23.8021 19.1559 22.1169 20.3225 20.2034 20.3225H16.3233C16.1357 19.2727 15.7477 18.2915 15.2011 17.4193ZM10.8522 13.9784L11.5325 10.6451H22.3385L23.5235 16.4516H14.4921C13.5349 15.3264 12.281 14.4611 10.8522 13.9784ZM20.8065 6.7742H21.7742V7.74193H20.8065V6.7742ZM9.81299 9.84639C9.9617 9.17713 10.5445 8.70967 11.2301 8.70967H22.641C23.3266 8.70967 23.9093 9.17713 24.0581 9.84633L25.5259 16.4516H24.5113L23.2868 10.4517C23.1953 10.0031 22.7965 9.6774 22.3386 9.6774H11.5325C11.0747 9.6774 10.6759 10.003 10.5842 10.4517L9.91646 13.7234C9.61096 13.6594 9.2993 13.6126 8.98248 13.5835L9.81299 9.84639ZM8.2258 29.0323C4.22373 29.0323 0.967734 25.7763 0.967734 21.7742C0.967734 17.7721 4.22373 14.5161 8.2258 14.5161C12.2279 14.5161 15.4839 17.7721 15.4839 21.7742C15.4839 25.7763 12.2279 29.0323 8.2258 29.0323ZM15.7455 25.1069C15.8121 25.1414 15.8876 25.1613 15.9678 25.1613C16.235 25.1613 16.4517 24.9446 16.4517 24.6774C16.4517 24.4503 16.295 24.2603 16.084 24.2082C16.1832 23.8886 16.2635 23.5607 16.3234 23.2258H18.8711C19.1378 23.2258 19.3549 23.4429 19.3549 23.7097V26.129H15.2012C15.4055 25.8028 15.5877 25.4615 15.7455 25.1069ZM27.0968 29.0323H26.1291C25.5954 29.0323 25.1613 28.5981 25.1613 28.0645V26.9808C26.2127 26.7894 27.2013 26.3636 28.0645 25.729V28.0645C28.0645 28.5981 27.6304 29.0323 27.0968 29.0323ZM28.0645 24.4727C26.9253 25.5424 25.4456 26.129 23.8758 26.129H20.3226V23.7097C20.3226 22.9093 19.6714 22.2581 18.871 22.2581H16.437C16.4464 22.0979 16.4517 21.9367 16.4517 21.7742C16.4517 21.6117 16.4464 21.4505 16.437 21.2903H20.2035C22.6471 21.2903 24.7827 19.7165 25.5246 17.4193H25.9286L26.2707 17.7615C27.4275 18.9182 28.0645 20.4561 28.0645 22.0921L28.0645 24.4727ZM29.0323 15.9677C29.0323 16.2345 28.8152 16.4516 28.5484 16.4516H26.5172L26.1331 14.7231C26.3029 14.5893 26.5107 14.5161 26.7304 14.5161H28.5485C28.8152 14.5161 29.0323 14.7332 29.0323 15V15.9677H29.0323Z" fill="#DF570E"/>
    <path d="M24.7208 21.2903C23.3156 21.2903 22.0522 22.071 21.4237 23.328C21.3363 23.503 21.29 23.6989 21.29 23.8945C21.29 24.593 21.8583 25.1613 22.5568 25.1613H23.6657C25.0709 25.1613 26.3342 24.3805 26.9627 23.1236C27.0502 22.9486 27.0964 22.7527 27.0964 22.5571C27.0964 21.8585 26.5281 21.2903 25.8296 21.2903H24.7208ZM26.1287 22.557C26.1287 22.6033 26.1177 22.6495 26.0971 22.6907C25.6336 23.6176 24.702 24.1934 23.6656 24.1934H22.5567C22.3918 24.1934 22.2577 24.0592 22.2577 23.8944C22.2577 23.8482 22.2687 23.802 22.2892 23.7607C22.7527 22.8339 23.6844 22.2581 24.7207 22.2581H25.8296C25.9945 22.258 26.1287 22.3921 26.1287 22.557Z" fill="#DF570E"/>
    <path d="M17.9028 25.1612C18.17 25.1612 18.3867 24.9446 18.3867 24.6773C18.3867 24.4101 18.17 24.1935 17.9028 24.1935C17.6356 24.1935 17.4189 24.4101 17.4189 24.6773C17.4189 24.9446 17.6356 25.1612 17.9028 25.1612Z" fill="#DF570E"/>
    <path d="M13.2501 20.0173L14.1632 19.6969C14.0336 19.3274 13.868 18.9678 13.6712 18.6283L12.834 19.1137C13.0004 19.4009 13.1404 19.7049 13.2501 20.0173Z" fill="#DF570E"/>
    <path d="M12.1886 18.225L12.909 17.579C11.7153 16.2475 10.0082 15.4839 8.22559 15.4839V16.4516C9.73361 16.4516 11.1781 17.098 12.1886 18.225Z" fill="#DF570E"/>
    <path d="M12.844 21.0339C12.3163 19.4508 10.8405 18.3871 9.17168 18.3871H4.63611C3.68068 18.3871 2.90332 19.1644 2.90332 20.1199V20.1854C2.90332 20.3117 2.91715 20.4382 2.94463 20.5613L3.2932 22.13C3.48357 22.9866 3.96533 23.7607 4.64988 24.3098C5.33432 24.8589 6.19453 25.1613 7.07203 25.1613H11.8157C12.7712 25.1613 13.5485 24.3839 13.5485 23.4285C13.5485 23.2418 13.5186 23.0574 13.4596 22.8805L12.844 21.0339ZM11.8157 24.1936H7.07197C5.70076 24.1936 4.53533 23.2586 4.23785 21.9202L3.88928 20.3514C3.87721 20.2971 3.871 20.2412 3.871 20.1856V20.12C3.871 19.6981 4.21424 19.3549 4.63605 19.3549H9.17162C10.4232 19.3549 11.5301 20.1526 11.9258 21.34L12.5414 23.1867C12.5675 23.2648 12.5806 23.3461 12.5806 23.4285C12.5807 23.8504 12.2375 24.1936 11.8157 24.1936Z" fill="#DF570E"/>
    <path d="M9.19367 19.8387C8.53561 19.8387 7.95354 20.1692 7.60367 20.6725C7.37111 20.1802 6.87002 19.8387 6.29047 19.8387C5.49008 19.8387 4.83887 20.4899 4.83887 21.2903C4.83887 22.0908 5.49008 22.7419 6.29047 22.7419C6.69857 22.7419 7.06754 22.5725 7.3315 22.3005C7.56143 23.1127 8.30891 23.7097 9.19367 23.7097C10.2609 23.7097 11.1291 22.8415 11.1291 21.7743C11.1291 20.707 10.2609 19.8387 9.19367 19.8387ZM6.29047 21.7742C6.02369 21.7742 5.8066 21.5571 5.8066 21.2903C5.8066 21.0236 6.02369 20.8065 6.29047 20.8065C6.55725 20.8065 6.77434 21.0236 6.77434 21.2903C6.77434 21.5571 6.55725 21.7742 6.29047 21.7742ZM9.19367 22.7419C8.66006 22.7419 8.22594 22.3078 8.22594 21.7742C8.22594 21.2407 8.66012 20.8065 9.19367 20.8065C9.72728 20.8065 10.1614 21.2407 10.1614 21.7742C10.1614 22.3078 9.72728 22.7419 9.19367 22.7419Z" fill="#DF570E"/>
</svg>
