<svg width="30" height="22" viewBox="0 0 30 22" fill="none" xmlns="http://www.w3.org/2000/svg">
    <path d="M14.0327 13.5483C14.833 13.5483 15.4843 12.8971 15.4843 12.0967C15.4843 11.2964 14.833 10.6451 14.0327 10.6451C13.2323 10.6451 12.5811 11.2964 12.5811 12.0967C12.5811 12.8971 13.2323 13.5483 14.0327 13.5483V13.5483ZM14.0327 11.6129C14.2993 11.6129 14.5165 11.8297 14.5165 12.0967C14.5165 12.3638 14.2993 12.5806 14.0327 12.5806C13.7661 12.5806 13.5488 12.3638 13.5488 12.0967C13.5488 11.8297 13.7661 11.6129 14.0327 11.6129Z" fill="#DF570E"/>
    <path d="M8.22602 14.0322C7.42568 14.0322 6.77441 14.6835 6.77441 15.4838C6.77441 16.2842 7.42568 16.9354 8.22602 16.9354C9.02635 16.9354 9.67762 16.2842 9.67762 15.4838C9.67762 14.6835 9.02635 14.0322 8.22602 14.0322ZM8.22602 15.9678C7.95941 15.9678 7.74215 15.751 7.74215 15.4839C7.74215 15.2168 7.95941 15 8.22602 15C8.49262 15 8.70988 15.2168 8.70988 15.4839C8.70988 15.751 8.49262 15.9678 8.22602 15.9678Z" fill="#DF570E"/>
    <path d="M20.8061 12.5806C20.0058 12.5806 19.3545 13.2318 19.3545 14.0322C19.3545 14.8325 20.0058 15.4838 20.8061 15.4838C21.6064 15.4838 22.2577 14.8325 22.2577 14.0322C22.2577 13.2319 21.6064 12.5806 20.8061 12.5806ZM20.8061 14.516C20.5395 14.516 20.3222 14.2992 20.3222 14.0322C20.3222 13.7651 20.5395 13.5483 20.8061 13.5483C21.0727 13.5483 21.29 13.7651 21.29 14.0322C21.29 14.2993 21.0727 14.516 20.8061 14.516Z" fill="#DF570E"/>
    <path d="M1.93555 18.8709C1.93555 19.4047 2.36955 19.8387 2.90328 19.8387H22.742C25.6767 19.8387 28.0646 17.4507 28.0646 14.5161V9.67733C28.0646 9.1436 27.6306 8.70959 27.0969 8.70959H12.0969C6.49361 8.70965 1.93555 13.2682 1.93555 18.8709V18.8709ZM2.90328 18.8709C2.90328 17.3313 3.28842 15.8811 3.96055 14.6047C3.90201 14.8887 3.87102 15.1829 3.87102 15.4839C3.87102 16.8513 4.50588 18.0721 5.49488 18.8709H2.90328ZM11.613 12.0967C11.613 10.7627 12.6983 9.67739 14.0323 9.67739C15.3663 9.67739 16.4517 10.7627 16.4517 12.0967C16.4517 13.4307 15.3663 14.5161 14.0323 14.5161C13.3007 14.5161 12.6199 14.1909 12.1578 13.6243C12.0499 13.3973 11.9251 13.1805 11.7809 12.9773C11.6715 12.6967 11.613 12.4011 11.613 12.0967V12.0967ZM20.8065 18.3871C18.542 18.3871 16.6801 16.6669 16.4754 14.4363C17.0585 13.8275 17.4194 13.004 17.4194 12.0967C17.4194 11.8577 17.3937 11.6249 17.3463 11.3999C18.1689 10.3209 19.4439 9.67733 20.8065 9.67733C23.2075 9.67733 25.1613 11.6307 25.1613 14.0322C25.1613 16.4337 23.2075 18.3871 20.8065 18.3871V18.3871ZM11.613 15.4839C11.613 17.3511 10.0937 18.8709 8.22594 18.8709C6.3582 18.8709 4.83887 17.3511 4.83887 15.4839C4.83887 13.6166 6.3582 12.0968 8.22594 12.0968C10.0937 12.0968 11.613 13.6166 11.613 15.4839V15.4839ZM12.5807 15.4839C12.5807 15.3716 12.5725 15.2613 12.5638 15.1509C13.0153 15.3677 13.5146 15.4839 14.0323 15.4839C14.5965 15.4839 15.1278 15.3431 15.5962 15.0982C15.9388 16.7903 17.0739 18.1771 18.5953 18.8709H10.9569C11.9459 18.0721 12.5807 16.8513 12.5807 15.4839V15.4839ZM27.0969 9.67739V14.5161C27.0969 16.816 25.3037 18.7001 23.0425 18.856C24.8619 18.0087 26.1291 16.1681 26.1291 14.0323C26.1291 12.2323 25.2287 10.6413 23.8573 9.67739H27.0969ZM17.7509 9.67739C17.4605 9.88112 17.1929 10.1182 16.9462 10.379C16.7938 10.1216 16.6104 9.88545 16.398 9.67739H17.7509ZM10.6563 11.8722C9.96201 11.4033 9.12535 11.129 8.22588 11.129C7.72215 11.129 7.23975 11.2195 6.78928 11.3777C8.17361 10.394 9.83914 9.78965 11.6411 9.70065C11.0759 10.2643 10.7125 11.0269 10.6563 11.8722V11.8722Z" fill="#DF570E"/>
    <path d="M29.0323 6.77417H11.6129C5.20986 6.77417 0 11.984 0 18.3871V20.8064C0 21.3402 0.434004 21.7742 0.967734 21.7742H23.2258C26.9613 21.7742 30 18.7354 30 15V7.74196C30 7.20823 29.5659 6.77417 29.0323 6.77417V6.77417ZM29.0323 15C29.0323 18.2018 26.4276 20.8065 23.2258 20.8065H0.967734V18.3871C0.967734 12.5172 5.74307 7.74196 11.6129 7.74196H29.0322V15H29.0323Z" fill="#DF570E"/>
    <path d="M14.5166 0H15.4843V5.80646H14.5166V0Z" fill="#DF570E"/>
    <path d="M16.957 5.64441L17.9241 2.74008L18.8425 3.04588L17.8754 5.95021L16.957 5.64441Z" fill="#DF570E"/>
    <path d="M19.4531 5.52039L22.3562 1.64959L23.13 2.22991L20.2269 6.10071L19.4531 5.52039Z" fill="#DF570E"/>
    <path d="M11.1562 3.06116L12.0746 2.75535L13.0418 5.65979L12.1234 5.9656L11.1562 3.06116Z" fill="#DF570E"/>
    <path d="M6.87109 2.22571L7.64491 1.64535L10.5481 5.51633L9.77433 6.09669L6.87109 2.22571Z" fill="#DF570E"/>
</svg>
